<?xml version="1.0" encoding="UTF-8"?>
<svg id="Layer_2" data-name="Layer 2" xmlns="http://www.w3.org/2000/svg" viewBox="0 0 82 75.24">
  <defs>
    <style>
      .cls-1 {
        fill: #18009a;
      }
    </style>
  </defs>
  <g id="Layer_1-2" data-name="Layer 1">
    <path class="cls-1" d="M81.41,10.4c-.38-.37-.88-.58-1.41-.58h-7.73c-.95-5.56-5.82-9.81-11.65-9.81s-10.7,4.25-11.65,9.82h-15.03c-.95-5.57-5.82-9.82-11.65-9.82s-10.7,4.25-11.65,9.82H2s0,0,0,0c-.53,0-1.04.21-1.41.58-.38.38-.59.88-.59,1.42v51.6c0,1.1.9,2,2,2h8.63c.95,5.57,5.82,9.82,11.65,9.82s10.7-4.25,11.65-9.82h15.02c.95,5.57,5.82,9.82,11.65,9.82s10.7-4.25,11.65-9.82h7.73c1.1,0,2-.9,2-2V11.81c0-.53-.21-1.04-.59-1.42ZM32.11,61.42c-1.1,0-2,.9-2,2,0,4.31-3.51,7.82-7.82,7.82s-7.82-3.51-7.82-7.82c0-1.1-.9-2-2-2H4V13.81h8.46s0,0,0,0c.53,0,1.04-.21,1.41-.58.38-.38.59-.88.59-1.42,0-4.31,3.51-7.82,7.82-7.82s7.82,3.51,7.82,7.82c0,.53.21,1.04.59,1.42.38.37.88.58,1.41.58h7.13s0,10.4,0,10.4c-5.46.95-9.62,5.72-9.62,11.45s4.16,10.5,9.62,11.45v14.3h-7.13ZM78,61.42h-7.56c-1.1,0-2,.9-2,2,0,4.31-3.51,7.82-7.82,7.82s-7.82-3.51-7.82-7.82c0-1.1-.9-2-2-2h-7.56v-16.13c0-1.1-.9-2-2-2-4.2,0-7.62-3.42-7.62-7.62s3.42-7.62,7.62-7.62c1.1,0,2-.9,2-2v-12.23h7.56s0,0,0,0c.53,0,1.04-.21,1.41-.58.38-.38.59-.88.59-1.42,0-4.31,3.51-7.82,7.82-7.82s7.82,3.51,7.82,7.82c0,.53.21,1.04.59,1.42.38.37.88.58,1.41.58h7.56s0,47.59,0,47.59Z"/>
  </g>
</svg>