<?xml version="1.0" encoding="UTF-8"?>
<svg id="Layer_2" data-name="Layer 2" xmlns="http://www.w3.org/2000/svg" viewBox="0 0 84 73.02">
  <defs>
    <style>
      .cls-1 {
        fill: #18009a;
      }
    </style>
  </defs>
  <g id="Layer_1-2" data-name="Layer 1">
    <g>
      <path class="cls-1" d="M53.91,0c-16.59,0-30.09,13.5-30.09,30.09,0,.23.01.45.02.68-.87-.11-1.74-.17-2.62-.17C9.51,30.61,0,40.12,0,51.81s9.51,21.21,21.21,21.21c9.56,0,17.88-6.41,20.42-15.47,3.75,1.68,7.91,2.63,12.28,2.63,16.59,0,30.09-13.5,30.09-30.09S70.5,0,53.91,0ZM21.21,69.02c-9.49,0-17.21-7.72-17.21-17.21s7.72-17.21,17.21-17.21c1.01,0,2.01.11,2.99.29.5,3.12,1.49,6.08,2.88,8.81-.08.06-.15.11-.22.18l-5.65,5.65-5.65-5.65c-.78-.78-2.05-.78-2.83,0-.78.78-.78,2.05,0,2.83l5.65,5.65-5.65,5.65c-.78.78-.78,2.05,0,2.83.39.39.9.59,1.41.59s1.02-.2,1.41-.59l5.65-5.65,5.65,5.65c.39.39.9.59,1.41.59s1.02-.2,1.41-.59c.78-.78.78-2.05,0-2.83l-5.65-5.65,5.14-5.14c2.33,3.36,5.33,6.22,8.8,8.4-1.76,7.8-8.71,13.41-16.77,13.41ZM53.91,56.19c-14.39,0-26.09-11.71-26.09-26.09S39.52,4,53.91,4s26.09,11.71,26.09,26.09-11.71,26.09-26.09,26.09Z"/>
      <path class="cls-1" d="M66.06,20.13l-13.6,15.93-9.31-8.93c-.8-.77-2.06-.74-2.83.06-.76.8-.74,2.06.06,2.83l10.84,10.4c.37.36.87.56,1.38.56.03,0,.07,0,.1,0,.55-.03,1.06-.28,1.42-.7l14.98-17.54c.72-.84.62-2.1-.22-2.82-.84-.72-2.1-.62-2.82.22Z"/>
    </g>
  </g>
</svg>