<?xml version="1.0" encoding="UTF-8"?>
<svg id="Layer_2" data-name="Layer 2" xmlns="http://www.w3.org/2000/svg" viewBox="0 0 89 76.93">
  <defs>
    <style>
      .cls-1 {
        fill: #18009a;
      }
    </style>
  </defs>
  <g id="Layer_1-2" data-name="Layer 1">
    <path class="cls-1" d="M87.78,50.47l-26.43-11.12v-11.52c1.35-1.35,2.17-3.2,2.17-5.2v-5.7c0-3.36-2.73-6.09-6.09-6.09h-5.37c-.17-6-5.1-10.84-11.14-10.84h-18.31c-6.04,0-10.97,4.83-11.14,10.84h-5.37c-3.36,0-6.09,2.73-6.09,6.09v5.71c0,2,.83,3.85,2.17,5.19v20.44c0,3.99,3.72,7.23,8.28,7.23h19.23v9.74c0,1.1.9,2,2,2s2-.9,2-2v-9.93l5.44,2.29v10.26c0,.6.27,1.17.74,1.55,6.14,5,12.88,7.5,19.62,7.5s13.3-2.44,19.38-7.31l.23-.19c.47-.38.75-.95.75-1.56v-10.38l7.93-3.34c.74-.31,1.22-1.04,1.22-1.84s-.48-1.53-1.22-1.84ZM22.6,4h18.31c3.84,0,6.97,3.04,7.14,6.84H15.46c.17-3.8,3.3-6.84,7.14-6.84ZM4,16.93c0-1.15.94-2.09,2.09-2.09h51.33c1.15,0,2.09.94,2.09,2.09v5.7c0,1.57-1.11,2.94-2.65,3.27l-25.34,5.42-24.9-5.4c-1.53-.33-2.64-1.71-2.64-3.27v-5.71ZM6.17,48.28v-18.37l25.35,5.5,25.82-5.52v9.45l-26.43,11.13c-.16.07-.31.17-.45.27-.03.03-.07.05-.1.08-.13.11-.25.24-.34.38,0,0,0,.02-.01.02-.06.09-.11.18-.15.28H10.46c-2.32,0-4.28-1.48-4.28-3.23ZM75.85,66.91c-10.44,8.07-22.28,8.07-32.71,0v-7.61l15.43,6.5c.25.1.51.16.78.16s.53-.05.78-.16l15.72-6.62v7.73ZM59.35,61.78l-22.5-9.47,22.5-9.47,22.5,9.47-22.5,9.47Z"/>
  </g>
</svg>