<?xml version="1.0" encoding="UTF-8"?>
<svg id="Layer_2" data-name="Layer 2" xmlns="http://www.w3.org/2000/svg" viewBox="0 0 73.88 73.88">
  <defs>
    <style>
      .cls-1 {
        fill: #18009a;
      }
    </style>
  </defs>
  <g id="Layer_1-2" data-name="Layer 1">
    <g>
      <path class="cls-1" d="M36.94,61.58c-13.59,0-24.64-11.05-24.64-24.64s11.05-24.64,24.64-24.64,24.64,11.05,24.64,24.64-11.05,24.64-24.64,24.64ZM36.94,16.3c-11.38,0-20.64,9.26-20.64,20.64s9.26,20.64,20.64,20.64,20.64-9.26,20.64-20.64-9.26-20.64-20.64-20.64Z"/>
      <path class="cls-1" d="M36,45.74c-.51,0-1.01-.2-1.38-.56l-8.37-8.03c-.8-.76-.82-2.03-.06-2.83s2.03-.82,2.83-.06l6.84,6.56,10.19-11.93c.72-.84,1.98-.94,2.82-.22.84.72.94,1.98.22,2.82l-11.57,13.54c-.36.42-.87.67-1.42.7-.03,0-.07,0-.1,0Z"/>
      <path class="cls-1" d="M30.76,73.88c-.38,0-.76-.04-1.15-.11-1.83-.36-3.32-1.54-4.1-3.23l-.63-1.37c-.38-.82-1.34-1.22-2.2-.91l-1.42.52c-1.75.64-3.64.42-5.19-.61s-2.48-2.7-2.55-4.56l-.06-1.51c-.04-.91-.78-1.64-1.68-1.68l-1.51-.06c-1.86-.07-3.52-1-4.56-2.55-1.03-1.55-1.26-3.44-.61-5.19l.52-1.42c.31-.85-.09-1.82-.91-2.2l-1.37-.63c-1.69-.78-2.87-2.27-3.23-4.1-.36-1.83.15-3.66,1.42-5.03l1.03-1.11c.62-.67.62-1.71,0-2.38l-1.03-1.11c-1.26-1.37-1.78-3.2-1.42-5.03.36-1.83,1.54-3.32,3.23-4.1l1.37-.63c.82-.38,1.22-1.34.91-2.2l-.52-1.42c-.64-1.75-.42-3.64.61-5.19,1.03-1.55,2.7-2.48,4.56-2.55l1.51-.06c.91-.04,1.64-.78,1.68-1.68l.06-1.51c.07-1.86,1-3.52,2.55-4.56s3.44-1.26,5.19-.61l1.42.52c.85.32,1.82-.09,2.2-.91l.63-1.37c.78-1.69,2.27-2.87,4.1-3.23,1.83-.36,3.66.15,5.03,1.42l1.11,1.03c.67.62,1.71.62,2.38,0l1.11-1.03c1.37-1.26,3.2-1.78,5.03-1.42,1.83.36,3.32,1.54,4.1,3.23l.63,1.37c.38.82,1.35,1.22,2.2.91l1.42-.52c1.75-.64,3.64-.42,5.19.61,1.55,1.03,2.48,2.7,2.55,4.56l.06,1.51c.04.91.78,1.64,1.68,1.68l1.51.06c1.86.07,3.52,1,4.56,2.55,1.03,1.55,1.26,3.44.61,5.19l-.52,1.42c-.31.85.09,1.82.91,2.2l1.37.63c1.69.78,2.87,2.27,3.23,4.1.36,1.83-.15,3.66-1.42,5.03l-1.03,1.11c-.62.67-.62,1.71,0,2.38l1.03,1.11c1.26,1.37,1.78,3.2,1.42,5.03-.36,1.83-1.54,3.32-3.23,4.1l-1.37.63c-.82.38-1.22,1.34-.91,2.2l.52,1.42c.64,1.75.42,3.64-.61,5.19-1.03,1.55-2.7,2.48-4.56,2.55l-1.51.06c-.91.04-1.64.78-1.68,1.68l-.06,1.51c-.07,1.86-1,3.52-2.55,4.56-1.55,1.03-3.44,1.26-5.19.61l-1.42-.52c-.85-.31-1.82.09-2.2.91l-.63,1.37c-.78,1.69-2.28,2.87-4.1,3.23-1.83.36-3.66-.15-5.03-1.42l-1.11-1.03c-.67-.62-1.71-.62-2.38,0l-1.11,1.03c-1.08,1-2.45,1.53-3.88,1.53ZM23.27,64.14c2.19,0,4.28,1.26,5.24,3.34l.63,1.37c.24.52.69.87,1.25.99.55.11,1.11-.05,1.53-.43l1.11-1.03c2.19-2.02,5.62-2.02,7.81,0l1.11,1.03c.42.39.97.54,1.53.43.56-.11,1.01-.47,1.25-.99l.63-1.37c1.25-2.71,4.42-4.02,7.21-2.99l1.42.52c.53.2,1.11.13,1.58-.19.47-.31.75-.82.78-1.39l.06-1.51c.12-2.98,2.54-5.41,5.52-5.52l1.51-.06c.57-.02,1.07-.31,1.39-.78.32-.47.38-1.05.19-1.58l-.52-1.42c-1.03-2.8.28-5.96,2.99-7.21l1.38-.63c.51-.24.87-.69.98-1.25.11-.56-.05-1.11-.43-1.53l-1.03-1.11c-2.02-2.19-2.02-5.62,0-7.81l1.03-1.11c.39-.42.54-.98.43-1.53-.11-.56-.47-1.01-.98-1.25l-1.37-.63c-2.71-1.25-4.02-4.42-2.99-7.21l.52-1.42c.2-.53.13-1.11-.19-1.58-.31-.47-.82-.75-1.39-.78l-1.51-.06c-2.98-.12-5.41-2.54-5.52-5.52l-.06-1.51c-.02-.57-.31-1.07-.78-1.39-.47-.32-1.05-.38-1.58-.19l-1.42.52c-2.8,1.03-5.96-.28-7.21-2.99l-.63-1.37c-.24-.51-.69-.87-1.25-.98-.56-.11-1.12.05-1.53.43l-1.11,1.03c-2.19,2.02-5.62,2.02-7.81,0l-1.11-1.03c-.42-.39-.98-.54-1.53-.43-.56.11-1.01.47-1.25.98l-.63,1.37c-1.25,2.71-4.41,4.02-7.21,2.99l-1.42-.52c-.53-.19-1.11-.13-1.58.19-.47.31-.75.82-.78,1.39l-.06,1.51c-.12,2.98-2.54,5.41-5.52,5.52l-1.51.06c-.57.02-1.07.31-1.39.78-.32.47-.38,1.05-.19,1.58l.52,1.42c1.03,2.8-.28,5.96-2.99,7.21l-1.37.63c-.51.24-.87.69-.98,1.25-.11.56.05,1.11.43,1.53l1.03,1.11c2.02,2.19,2.02,5.62,0,7.81l-1.03,1.11c-.39.42-.54.98-.43,1.53.11.56.47,1.01.98,1.25l1.37.63c2.71,1.25,4.02,4.42,2.99,7.21l-.52,1.42c-.2.53-.13,1.11.19,1.58.31.47.82.75,1.39.78l1.51.06c2.98.12,5.41,2.54,5.52,5.52l.06,1.51c.02.57.31,1.07.78,1.39.47.32,1.05.38,1.58.19l1.42-.52c.65-.24,1.31-.35,1.97-.35Z"/>
    </g>
  </g>
</svg>