<?xml version="1.0" encoding="UTF-8"?>
<svg id="Layer_2" data-name="Layer 2" xmlns="http://www.w3.org/2000/svg" viewBox="0 0 86 61.7">
  <defs>
    <style>
      .cls-1 {
        fill: #18009a;
      }
    </style>
  </defs>
  <g id="Layer_1-2" data-name="Layer 1">
    <path class="cls-1" d="M37.72,38.06h10.11c1.1,0,2-.9,2-2v-3.05h23.62c6.92,0,12.55-5.63,12.55-12.55v-2.42c0-6.92-5.63-12.55-12.55-12.55h-.68l-2.58-4.48c-.36-.62-1.02-1-1.73-1h-6.33c-.71,0-1.38.38-1.73,1l-2.59,4.48H16.17c-.24-.77-.6-1.51-1.11-2.17-1.12-1.47-2.74-2.41-4.55-2.66-1.83-.25-3.63.23-5.1,1.35-1.47,1.12-2.41,2.74-2.66,4.55-.25,1.82.23,3.63,1.35,5.1,1.12,1.47,2.74,2.41,4.55,2.66.31.04.62.06.93.06,3.03,0,5.71-2.01,6.59-4.9h41.63l2.59,4.48c.36.62,1.02,1,1.73,1h6.33c.71,0,1.38-.38,1.73-1l2.58-4.48h.68c4.72,0,8.55,3.84,8.55,8.55v2.42c0,4.72-3.84,8.55-8.55,8.55h-23.62v-3.05c0-1.1-.9-2-2-2h-10.11c-1.1,0-2,.9-2,2v3.05H12.56c-6.92,0-12.56,5.63-12.56,12.55v2.42c0,6.92,5.63,12.55,12.56,12.55h2.71l-1.37,2.04c-.41.61-.45,1.4-.1,2.06.35.65,1.03,1.06,1.76,1.06h13.85c.74,0,1.42-.41,1.76-1.06.35-.65.31-1.44-.1-2.06l-1.37-2.04h40.59c.24.77.6,1.51,1.11,2.17,1.12,1.47,2.74,2.41,4.55,2.66.31.04.63.06.94.06,1.5,0,2.95-.49,4.16-1.41,1.47-1.12,2.41-2.74,2.66-4.55.25-1.82-.23-3.63-1.35-5.1-1.12-1.47-2.74-2.41-4.55-2.66-3.41-.47-6.56,1.65-7.52,4.83H27l-2.87-4.27c-.37-.55-.99-.89-1.66-.89s-1.29.33-1.66.89l-2.88,4.3c-.08-.01-.16-.02-.25-.02h-5.13c-4.72,0-8.56-3.84-8.56-8.55v-2.42c0-4.72,3.84-8.55,8.56-8.55h23.17v3.05c0,1.1.9,2,2,2ZM12.45,7.87c-.22,1.58-1.7,2.69-3.26,2.48-.76-.1-1.44-.5-1.91-1.12-.47-.62-.67-1.38-.57-2.14.1-.76.5-1.44,1.12-1.91.51-.39,1.12-.6,1.75-.6.13,0,.26,0,.39.03.76.1,1.44.5,1.91,1.12.47.62.67,1.38.57,2.14ZM67.3,10.96h-4.02l-2.01-3.48,2.01-3.48h4.02l2.01,3.48-2.01,3.48ZM39.72,27.95h6.11v6.11h-6.11v-6.11ZM74,54.15c.2-1.45,1.44-2.51,2.87-2.51.13,0,.26,0,.39.03.76.1,1.44.5,1.91,1.12.47.62.67,1.38.57,2.14-.22,1.58-1.69,2.69-3.26,2.48-.76-.1-1.44-.5-1.91-1.12-.47-.62-.67-1.38-.57-2.14ZM22.48,52.97l3.17,4.73h-6.35l3.17-4.73Z"/>
  </g>
</svg>