<?xml version="1.0" encoding="UTF-8"?>
<svg id="Layer_1" xmlns="http://www.w3.org/2000/svg" viewBox="0 0 386.76 370.31">
  <defs>
    <style>
      .cls-1 {
        fill: #fff;
      }
    </style>
  </defs>
  <path class="cls-1" d="M200.63,370.03c9.59-.81,27.98-3.1,49.75-9.52,41.82-12.32,76.09-34.18,99.12-63.22,36-45.4,45.97-108.03,29.64-186.17-6.67-31.88-8.77-63.32-9.26-72.2-.23-4.26-2.27-8.24-5.58-10.93-3.19-2.58-7.14-3.67-11.12-3.05-.63.1-1.27.24-1.89.42-4.73,1.37-8.41,4.99-9.84,9.67-3.67,12-6.67,22.67-9.57,32.98-12.93,45.95-21.08,74.89-61.01,115.72-1.74-7.38-3.77-15.31-6.11-23.91-4.63-16.99-15.92-49.66-23.22-67.24l-27.51-66.17-7.98-17.95c-2.32-5.22-7.3-8.46-13.01-8.46h-.08c-5.75.03-10.73,3.33-13,8.6l-29.15,67.59-.05.13c-7.26,17.82-20.13,52.32-28.28,77-3.38,10.25-6.23,19.65-8.58,28.36-38.23-39.76-46.31-68.49-59.03-113.68-2.9-10.32-5.9-20.98-9.57-32.98-1.43-4.68-5.11-8.3-9.85-9.67-.62-.18-1.25-.32-1.89-.42-3.98-.62-7.93.47-11.12,3.05-3.31,2.68-5.34,6.67-5.58,10.93-.49,8.88-2.59,40.32-9.26,72.2-16.34,78.14-6.37,140.78,29.64,186.17,23.03,29.04,57.31,50.9,99.12,63.22,21.77,6.41,42.77,9.09,49.75,9.52s8.69.32,14.51,0ZM263.11,256.29c-4.21,19.99-16.02,34.88-35.59,59.56-7.9,9.97-16.78,21.16-26.77,34.74.01-.5.02-1.01.03-1.54.66-32.22,7.91-91.52,49-126.69,4.4-3.77,8.57-7.43,12.51-11.01,3.18,19.11,3.32,33.07.83,44.93ZM121.97,209.06c4.67,4.3,9.67,8.73,15.02,13.31,41.08,35.17,48.33,94.47,49,126.69.01.55.02,1.07.03,1.59-9.21-12.35-17.67-23-25.19-32.48-20.84-26.24-34.62-43.58-39.41-65.23-2.7-12.19-2.62-26.11.56-43.88ZM163.69,81.68l29.12-67.53c.03-.07.06-.11.06-.12.06-.04.26-.05.32,0,0,0,.03.04.07.11l7.88,17.71,27.48,66.09c7,16.84,18.22,49.31,22.64,65.55,3.22,11.81,5.83,22.3,7.88,31.7-5.62,5.28-11.75,10.76-18.48,16.53-26.68,22.84-40.39,54.4-47.29,83.54-6.9-29.14-20.6-60.69-47.29-83.54-7.63-6.53-14.49-12.71-20.7-18.63,2.58-10.49,6.02-22.18,10.38-35.39,8.04-24.37,20.74-58.41,27.92-76.04ZM48.16,288.51C14.91,246.53,5.89,187.81,21.32,113.98c6.87-32.85,9.03-65.18,9.53-74.3.03-.53.44-.89.57-.91.05,0,.09.02.13.03.26.08.34.26.35.31,3.62,11.85,6.6,22.44,9.48,32.69,13.57,48.23,22.55,80.14,68.6,125.83-5.23,24.08-5.8,42.29-2.25,58.33,5.49,24.8,20.86,44.14,42.12,70.91,6.42,8.09,13.53,17.05,21.19,27.15-8.75-1.41-19.47-3.61-31.14-7.07-27.11-8.04-65.04-24.71-91.75-58.45ZM338.6,288.51c-26.72,33.74-64.64,50.41-91.76,58.45-11.71,3.47-22.47,5.68-31.24,7.09,8.4-11.25,16.01-20.84,22.87-29.49,20.14-25.39,33.44-42.16,38.33-65.38,3.25-15.44,2.66-33.46-2.4-59.22,48.1-46.94,57.16-79.11,70.95-128.15,2.88-10.24,5.86-20.83,9.48-32.69.02-.05.09-.24.35-.31.04-.01.09-.02.13-.03.14.03.55.39.58.91.5,9.13,2.67,41.46,9.53,74.3,15.44,73.83,6.41,132.54-26.83,174.52Z"/>
</svg>