<?xml version="1.0" encoding="UTF-8"?>
<svg id="Layer_1" xmlns="http://www.w3.org/2000/svg" viewBox="0 0 568.33 217.97">
  <defs>
    <style>
      .cls-1 {
        fill: #fff;
      }
    </style>
  </defs>
  <g>
    <path class="cls-1" d="M131.96.4h-8.63v159.19h29.24V21.01c0-11.38-9.23-20.61-20.61-20.61Z"/>
    <path class="cls-1" d="M257.56,64.27c-5.05-5.05-11.07-9.01-18.03-11.87-6.97-2.86-14.48-4.28-22.54-4.28s-15.59,1.43-22.54,4.28c-6.96,2.86-12.98,6.82-18.03,11.87-5.05,5.05-9.01,11.1-11.87,18.14-2.86,7.03-4.28,14.73-4.28,23.08s1.43,16.02,4.28,22.97c2.86,6.96,6.82,13.01,11.87,18.14,5.05,5.13,11.07,9.12,18.03,11.98,6.97,2.86,14.48,4.28,22.54,4.28s15.59-1.43,22.54-4.28c6.96-2.86,12.98-6.85,18.03-11.98,5.05-5.13,9.01-11.16,11.87-18.14,2.86-6.96,4.28-14.62,4.28-22.97s-1.43-16.05-4.28-23.08c-2.86-7.03-6.82-13.08-11.87-18.14ZM242.17,118.91c-1.55,3.81-3.56,7-6.05,9.57-2.5,2.56-5.44,4.5-8.8,5.82-3.38,1.32-6.82,1.98-10.33,1.98s-6.97-.66-10.33-1.98c-3.38-1.31-6.31-3.26-8.8-5.82-2.5-2.56-4.51-5.76-6.05-9.57-1.54-3.81-2.3-8.28-2.3-13.41s.77-9.6,2.3-13.41c1.55-3.81,3.56-7,6.05-9.57,2.49-2.55,5.42-4.5,8.8-5.82,3.36-1.32,6.82-1.98,10.33-1.98s6.96.66,10.33,1.98c3.38,1.32,6.31,3.26,8.8,5.82,2.49,2.56,4.51,5.76,6.05,9.57,1.54,3.81,2.3,8.28,2.3,13.41s-.77,9.6-2.3,13.41Z"/>
    <path class="cls-1" d="M379.37,64.27c-5.05-5.05-11.07-9.01-18.03-11.87-6.97-2.86-14.48-4.28-22.54-4.28s-15.59,1.43-22.54,4.28c-6.96,2.86-12.98,6.82-18.03,11.87-5.05,5.05-9.01,11.1-11.87,18.14-2.86,7.03-4.28,14.73-4.28,23.08s1.43,16.02,4.28,22.97c2.86,6.96,6.82,13.01,11.87,18.14,5.05,5.13,11.07,9.12,18.03,11.98,6.97,2.86,14.48,4.28,22.54,4.28s15.59-1.43,22.54-4.28c6.96-2.86,12.98-6.85,18.03-11.98,5.05-5.13,9.01-11.16,11.87-18.14,2.86-6.96,4.28-14.62,4.28-22.97s-1.43-16.05-4.28-23.08c-2.86-7.03-6.82-13.08-11.87-18.14ZM363.98,118.91c-1.55,3.81-3.56,7-6.05,9.57-2.5,2.56-5.44,4.5-8.8,5.82-3.38,1.32-6.82,1.98-10.33,1.98s-6.97-.66-10.34-1.98c-3.38-1.31-6.31-3.26-8.8-5.82-2.5-2.56-4.51-5.76-6.05-9.57-1.54-3.81-2.3-8.28-2.3-13.41s.77-9.6,2.3-13.41c1.55-3.81,3.56-7,6.05-9.57,2.49-2.55,5.42-4.5,8.8-5.82,3.36-1.32,6.82-1.98,10.34-1.98s6.96.66,10.33,1.98c3.38,1.32,6.31,3.26,8.8,5.82,2.49,2.56,4.52,5.76,6.05,9.57,1.54,3.81,2.3,8.28,2.3,13.41s-.77,9.6-2.3,13.41Z"/>
    <path class="cls-1" d="M565.03,70.89c-2.2-5.21-5.15-9.49-8.8-12.87-3.67-3.38-7.85-5.82-12.53-7.37-5.02-1.66-11.9-3.04-21.38-2.3-7.15.55-13.63,1.35-19.35,4.07-5.73,2.72-10.7,7.36-14.96,13.96-2.78-5.85-6.95-10.34-12.53-13.41-5.57-3.09-12.08-4.62-19.56-4.62-2.93,0-5.97.37-9.12,1.11-3.15.72-6.16,1.75-9.01,3.07-2.86,1.32-5.45,2.99-7.8,5.05-2.35,2.06-4.25,4.39-5.72,7.03,0-7.28-5.91-13.19-13.19-13.19h-7.86v108.17l-.02.06h15.49c7.58,0,13.74-6.16,13.74-13.74v-49.59c0-6,1.77-11.07,5.28-15.17,3.52-4.1,8.51-6.16,14.96-6.16s11.44,1.94,14.51,5.82c3.09,3.88,4.62,8.75,4.62,14.62v64.21h15.28c7.59,0,13.75-6.16,13.75-13.74v-49.59c0-5.87,1.76-10.89,5.28-15.06,3.52-4.18,8.42-6.27,14.73-6.27,6.74,0,11.61,1.93,14.62,5.82,3,3.89,4.5,8.75,4.5,14.62v64.21h14.62c7.59,0,13.75-6.16,13.75-13.74v-56.4c0-7.19-1.11-13.38-3.3-18.58Z"/>
    <path class="cls-1" d="M108.91,79.87c-1.06-2.63-2.29-5.11-3.65-7.46-.54-.91-1.09-1.8-1.67-2.66-.17-.25-.34-.49-.51-.74-.43-.61-.86-1.21-1.31-1.81-.21-.28-.41-.55-.63-.83-.45-.57-.91-1.14-1.38-1.69-.2-.25-.4-.48-.61-.72-.68-.77-1.38-1.52-2.1-2.24-5.05-5.05-11.07-9.01-18.03-11.87-6.96-2.86-14.48-4.28-22.54-4.28-7.36,0-14.25,1.2-20.68,3.58v2.64c0,10.63,8.05,19.38,18.4,20.49.75-.06,1.52-.11,2.29-.11.68,0,1.34.05,2,.09.46.03.92.08,1.38.14,2.35.29,4.67.86,6.96,1.75,3.36,1.32,6.3,3.27,8.8,5.82,2.49,2.56,4.5,5.76,6.05,9.57,1.54,3.81,2.3,8.28,2.3,13.41s-.77,9.6-2.3,13.41c-1.54,3.81-3.56,7-6.05,9.57-2.49,2.56-5.42,4.52-8.8,5.82-3.38,1.32-6.82,1.98-10.34,1.98s-6.97-.66-10.33-1.98c-3.38-1.32-6.31-3.26-8.8-5.82-2.49-2.56-4.5-5.76-6.05-9.57-1.54-3.81-2.3-8.28-2.3-13.41l-.49-8.25V20.61c.02-11.38-9.21-20.61-20.61-20.61H0v108.86c.52,6.1,1.86,11.79,4.04,17.08,2.86,6.97,6.82,13.01,11.87,18.14,5.05,5.13,11.07,9.12,18.03,11.98,6.96,2.86,14.48,4.28,22.54,4.28s15.57-1.43,22.54-4.28c6.96-2.86,12.98-6.85,18.03-11.98,5.05-5.13,9.01-11.18,11.87-18.14,2.86-6.96,4.28-14.62,4.28-22.97s-1.43-16.05-4.28-23.08l-.02-.02Z"/>
  </g>
  <path class="cls-1" d="M406.57,212.43v-13.8h-3.36v-2.32h3.36v-5.16h2.84v5.16h4.12v2.32h-4.12v13.24c0,2.32.8,3.16,3.08,3.16.48,0,.84,0,1.36-.08v2.2c-.64.16-1.36.24-2.2.24-2.96,0-5.08-1.24-5.08-4.96Z"/>
  <path class="cls-1" d="M418.61,211.87c0-3.56,2.36-5.4,6.56-5.92l5.4-.6c2.24-.28,2.92-.76,2.92-1.4v-1c0-3.6-1.84-4.8-5.44-4.8s-5.48,1.24-5.48,4v.48h-2.72v-.68c0-4.16,2.96-6.04,8.28-6.04s8.2,2.08,8.2,7.08v14.12h-2.72v-3.68h-.12c-.56,1.12-2.96,4.08-8.08,4.08-3.96,0-6.8-1.8-6.8-5.64ZM433.48,209.79v-3.32c-.16.48-.92.88-3.12,1.12l-4.52.56c-3.32.4-4.4,1.64-4.4,3.56,0,2.56,1.96,3.52,4.6,3.52,5.08,0,7.44-3.4,7.44-5.44Z"/>
  <path class="cls-1" d="M443.37,189.12h2.84v28h-2.84v-28Z"/>
  <path class="cls-1" d="M452.33,206.79c0-7.56,4.32-10.88,9.64-10.88s9.2,3.4,9.2,10.24c0,.68-.04,1.08-.12,1.48h-15.96c.24,5.08,2.72,7.6,7.12,7.6,2.52,0,5-.84,6.08-3.84h2.6c-1.4,4.6-4.92,6.12-8.72,6.12-5.8,0-9.84-3.48-9.84-10.72ZM468.44,205.39c-.08-4.68-2.56-7.2-6.52-7.2s-6.52,2.32-6.8,7.2h13.32Z"/>
  <path class="cls-1" d="M486.48,198.36c-3.92,0-6.36,2.44-6.36,6.52v12.24h-2.84v-20.8h2.84v3.92c.44-1.4,2.56-4.32,7.28-4.32,4.08,0,7.52,2.2,7.52,8.4v12.8h-2.84v-12.24c0-4.08-1.68-6.52-5.6-6.52Z"/>
  <path class="cls-1" d="M503.08,212.43v-13.8h-3.36v-2.32h3.36v-5.16h2.84v5.16h4.12v2.32h-4.12v13.24c0,2.32.8,3.16,3.08,3.16.48,0,.84,0,1.36-.08v2.2c-.64.16-1.36.24-2.2.24-2.96,0-5.08-1.24-5.08-4.96Z"/>
  <path class="cls-1" d="M514.79,211.35h2.6c.4,2.96,3.16,3.88,5.96,3.88,2.96,0,5.36-1.08,5.36-3.84,0-2.16-1.48-2.88-3.84-3.44l-3.92-.92c-3.64-.88-5.48-2.64-5.48-5.52,0-3.64,3.04-5.6,7.72-5.6s7.68,1.92,7.92,6.04h-2.4c-.44-2.84-2.48-3.76-5.48-3.76-3.2,0-5,1.04-5,3.32,0,1.72,1,2.72,3.64,3.36l3.92.88c3.44.84,5.84,2.12,5.84,5.6,0,4.6-4.12,6.16-8.32,6.16-4.64,0-8.28-1.88-8.52-6.16Z"/>
  <g>
    <path class="cls-1" d="M131.96.4h-8.63v159.19h29.24V21.01c0-11.38-9.23-20.61-20.61-20.61Z"/>
    <path class="cls-1" d="M257.56,64.27c-5.05-5.05-11.07-9.01-18.03-11.87-6.97-2.86-14.48-4.28-22.54-4.28s-15.59,1.43-22.54,4.28c-6.96,2.86-12.98,6.82-18.03,11.87-5.05,5.05-9.01,11.1-11.87,18.14-2.86,7.03-4.28,14.73-4.28,23.08s1.43,16.02,4.28,22.97c2.86,6.96,6.82,13.01,11.87,18.14,5.05,5.13,11.07,9.12,18.03,11.98,6.97,2.86,14.48,4.28,22.54,4.28s15.59-1.43,22.54-4.28c6.96-2.86,12.98-6.85,18.03-11.98,5.05-5.13,9.01-11.16,11.87-18.14,2.86-6.96,4.28-14.62,4.28-22.97s-1.43-16.05-4.28-23.08c-2.86-7.03-6.82-13.08-11.87-18.14ZM242.17,118.91c-1.55,3.81-3.56,7-6.05,9.57-2.5,2.56-5.44,4.5-8.8,5.82-3.38,1.32-6.82,1.98-10.33,1.98s-6.97-.66-10.33-1.98c-3.38-1.31-6.31-3.26-8.8-5.82-2.5-2.56-4.51-5.76-6.05-9.57-1.54-3.81-2.3-8.28-2.3-13.41s.77-9.6,2.3-13.41c1.55-3.81,3.56-7,6.05-9.57,2.49-2.55,5.42-4.5,8.8-5.82,3.36-1.32,6.82-1.98,10.33-1.98s6.96.66,10.33,1.98c3.38,1.32,6.31,3.26,8.8,5.82,2.49,2.56,4.51,5.76,6.05,9.57,1.54,3.81,2.3,8.28,2.3,13.41s-.77,9.6-2.3,13.41Z"/>
    <path class="cls-1" d="M379.37,64.27c-5.05-5.05-11.07-9.01-18.03-11.87-6.97-2.86-14.48-4.28-22.54-4.28s-15.59,1.43-22.54,4.28c-6.96,2.86-12.98,6.82-18.03,11.87-5.05,5.05-9.01,11.1-11.87,18.14-2.86,7.03-4.28,14.73-4.28,23.08s1.43,16.02,4.28,22.97c2.86,6.96,6.82,13.01,11.87,18.14,5.05,5.13,11.07,9.12,18.03,11.98,6.97,2.86,14.48,4.28,22.54,4.28s15.59-1.43,22.54-4.28c6.96-2.86,12.98-6.85,18.03-11.98,5.05-5.13,9.01-11.16,11.87-18.14,2.86-6.96,4.28-14.62,4.28-22.97s-1.43-16.05-4.28-23.08c-2.86-7.03-6.82-13.08-11.87-18.14ZM363.98,118.91c-1.55,3.81-3.56,7-6.05,9.57-2.5,2.56-5.44,4.5-8.8,5.82-3.38,1.32-6.82,1.98-10.33,1.98s-6.97-.66-10.34-1.98c-3.38-1.31-6.31-3.26-8.8-5.82-2.5-2.56-4.51-5.76-6.05-9.57-1.54-3.81-2.3-8.28-2.3-13.41s.77-9.6,2.3-13.41c1.55-3.81,3.56-7,6.05-9.57,2.49-2.55,5.42-4.5,8.8-5.82,3.36-1.32,6.82-1.98,10.34-1.98s6.96.66,10.33,1.98c3.38,1.32,6.31,3.26,8.8,5.82,2.49,2.56,4.52,5.76,6.05,9.57,1.54,3.81,2.3,8.28,2.3,13.41s-.77,9.6-2.3,13.41Z"/>
    <path class="cls-1" d="M565.03,70.89c-2.2-5.21-5.15-9.49-8.8-12.87-3.67-3.38-7.85-5.82-12.53-7.37-5.02-1.66-11.9-3.04-21.38-2.3-7.15.55-13.63,1.35-19.35,4.07-5.73,2.72-10.7,7.36-14.96,13.96-2.78-5.85-6.95-10.34-12.53-13.41-5.57-3.09-12.08-4.62-19.56-4.62-2.93,0-5.97.37-9.12,1.11-3.15.72-6.16,1.75-9.01,3.07-2.86,1.32-5.45,2.99-7.8,5.05-2.35,2.06-4.25,4.39-5.72,7.03,0-7.28-5.91-13.19-13.19-13.19h-7.86v108.17l-.02.06h15.49c7.58,0,13.74-6.16,13.74-13.74v-49.59c0-6,1.77-11.07,5.28-15.17,3.52-4.1,8.51-6.16,14.96-6.16s11.44,1.94,14.51,5.82c3.09,3.88,4.62,8.75,4.62,14.62v64.21h15.28c7.59,0,13.75-6.16,13.75-13.74v-49.59c0-5.87,1.76-10.89,5.28-15.06,3.52-4.18,8.42-6.27,14.73-6.27,6.74,0,11.61,1.93,14.62,5.82,3,3.89,4.5,8.75,4.5,14.62v64.21h14.62c7.59,0,13.75-6.16,13.75-13.74v-56.4c0-7.19-1.11-13.38-3.3-18.58Z"/>
    <path class="cls-1" d="M108.91,79.87c-1.06-2.63-2.29-5.11-3.65-7.46-.54-.91-1.09-1.8-1.67-2.66-.17-.25-.34-.49-.51-.74-.43-.61-.86-1.21-1.31-1.81-.21-.28-.41-.55-.63-.83-.45-.57-.91-1.14-1.38-1.69-.2-.25-.4-.48-.61-.72-.68-.77-1.38-1.52-2.1-2.24-5.05-5.05-11.07-9.01-18.03-11.87-6.96-2.86-14.48-4.28-22.54-4.28-7.36,0-14.25,1.2-20.68,3.58v2.64c0,10.63,8.05,19.38,18.4,20.49.75-.06,1.52-.11,2.29-.11.68,0,1.34.05,2,.09.46.03.92.08,1.38.14,2.35.29,4.67.86,6.96,1.75,3.36,1.32,6.3,3.27,8.8,5.82,2.49,2.56,4.5,5.76,6.05,9.57,1.54,3.81,2.3,8.28,2.3,13.41s-.77,9.6-2.3,13.41c-1.54,3.81-3.56,7-6.05,9.57-2.49,2.56-5.42,4.52-8.8,5.82-3.38,1.32-6.82,1.98-10.34,1.98s-6.97-.66-10.33-1.98c-3.38-1.32-6.31-3.26-8.8-5.82-2.49-2.56-4.5-5.76-6.05-9.57-1.54-3.81-2.3-8.28-2.3-13.41l-.49-8.25V20.61c.02-11.38-9.21-20.61-20.61-20.61H0v108.86c.52,6.1,1.86,11.79,4.04,17.08,2.86,6.97,6.82,13.01,11.87,18.14,5.05,5.13,11.07,9.12,18.03,11.98,6.96,2.86,14.48,4.28,22.54,4.28s15.57-1.43,22.54-4.28c6.96-2.86,12.98-6.85,18.03-11.98,5.05-5.13,9.01-11.18,11.87-18.14,2.86-6.96,4.28-14.62,4.28-22.97s-1.43-16.05-4.28-23.08l-.02-.02Z"/>
  </g>
  <path class="cls-1" d="M567.75,198.99c-.48-2.27-.63-4.51-.66-5.14-.02-.39-.21-.76-.51-1.01-.29-.24-.67-.34-1.06-.28l-.16.04c-.44.13-.78.47-.91.9-.26.86-.49,1.65-.69,2.38-.9,3.19-1.45,5.14-3.92,7.78-.09-.37-.2-.76-.31-1.18-.33-1.23-1.15-3.59-1.68-4.87l-1.98-4.75-.58-1.3c-.21-.48-.69-.79-1.22-.79h0c-.53,0-1.01.32-1.22.8l-2.1,4.87c-.52,1.29-1.45,3.78-2.04,5.55-.18.54-.33,1.05-.47,1.53-2.36-2.57-2.91-4.51-3.8-7.65-.21-.73-.43-1.51-.69-2.38-.13-.43-.48-.77-.94-.9l-.15-.03c-.37-.06-.75.05-1.04.29-.3.25-.49.61-.51,1.01-.03.63-.19,2.88-.66,5.14-1.19,5.71-.46,10.3,2.19,13.63,3.31,4.17,8.59,5.11,10.62,5.32,0,0,.38.03.87.03s.81-.03.81-.03c2.03-.21,7.31-1.14,10.62-5.32,2.65-3.34,3.38-7.92,2.19-13.63ZM556.31,213.58c-.4.51-.85,1.07-1.33,1.7.16-2.35.85-5.84,3.37-8,.17-.14.32-.28.48-.42.4,3.03-.48,4.14-2.52,6.71ZM552,213.74c-2.15-2.71-3.21-4.05-2.81-7.04.21.19.43.38.66.58,2.53,2.16,3.21,5.66,3.37,8.01-.43-.56-.84-1.09-1.22-1.56ZM552.25,197.07l1.83-4.25,2.27,5.41c.5,1.2,1.3,3.52,1.61,4.67.21.77.38,1.46.53,2.09-.37.34-.76.69-1.19,1.06-1.65,1.41-2.62,3.26-3.2,5.08-.57-1.82-1.55-3.67-3.2-5.08-.49-.42-.93-.82-1.34-1.21.18-.7.41-1.47.69-2.34.58-1.75,1.49-4.19,1.99-5.43ZM543.9,211.61c-2.33-2.94-2.95-7.07-1.86-12.28.3-1.45.48-2.89.58-3.94.09.32.18.63.26.92.98,3.48,1.64,5.79,4.9,9.06-.92,4.49.4,6.16,2.95,9.38.32.4.66.84,1.02,1.3-2.25-.47-5.62-1.62-7.85-4.45ZM564.29,211.61c-2.24,2.83-5.61,3.98-7.86,4.45.41-.54.8-1.03,1.15-1.47,2.57-3.24,3.5-4.7,2.67-9.04,3.4-3.36,4.07-5.69,5.06-9.23.08-.3.17-.61.26-.93.1,1.05.28,2.48.58,3.94,1.09,5.21.46,9.34-1.86,12.28Z"/>
</svg>